<svg xmlns="http://www.w3.org/2000/svg" xmlns:xlink="http://www.w3.org/1999/xlink" version="1.1" x="0px" y="0px" viewBox="0 0 100 125" enable-background="new 0 0 100 100" xml:space="preserve"><g><rect x="-192" width="185" height="99"/><rect y="-36" width="100" height="30"/><text transform="matrix(1 0 0 1 66 -19.5)" fill="#000000" font-family="'Helvetica'" font-size="2.4">http://thenounproject.com</text><text transform="matrix(1 0 0 1 7.166 -24.5)"><tspan x="0" y="0" fill="#000000" font-family="'Helvetica-Bold'" font-size="6.1578">The Noun Project</tspan><tspan x="1.12" y="4.8" fill="#000000" font-family="'Helvetica-Bold'" font-size="4">Icon Template</tspan></text><text transform="matrix(1 0 0 1 -178.5 10.5)" fill="#000000" font-family="'Helvetica-Bold'" font-size="6.1578">Reminders</text><line fill="#000000" stroke="#FFFFFF" stroke-miterlimit="10" x1="8" y1="-14.5" x2="18" y2="-14.5"/><line fill="#000000" stroke="#FFFFFF" stroke-miterlimit="10" x1="-179" y1="16.5" x2="-162" y2="16.5"/><g><g><g><rect x="-170.802" y="31.318" fill="#000000" width="8.721" height="8.642"/><path fill="#000000" d="M-164.455,42.312h4.747v-4.703h-4.747V42.312z M-159.266,42.749h-5.63V37.17h5.63V42.749      L-159.266,42.749z M-166.221,44.062h8.279v-8.203h-8.279V44.062L-166.221,44.062z M-157.5,44.5h-9.163v-9.079h9.163V44.5      L-157.5,44.5z"/><polygon fill="#000000" points="-166.149,44.133 -166.292,43.991 -158.013,35.787 -157.871,35.929     "/></g></g></g><rect x="-179" y="58" fill="none" width="35" height="32.5"/><text transform="matrix(1 0 0 1 -179 60.1572)"><tspan x="0" y="0" fill="#000000" font-family="'Helvetica-Bold'" font-size="3">Strokes</tspan><tspan x="0" y="5" fill="#000000" font-family="'Helvetica'" font-size="2.4">Try to keep strokes at 4px</tspan><tspan x="0" y="10" fill="#000000" font-family="'Helvetica'" font-size="2.4">Minimum stroke weight is 2px</tspan><tspan x="0" y="14.5" fill="#000000" font-family="'Helvetica'" font-size="2.4">For thicker strokes use even </tspan><tspan x="0" y="17.5" fill="#000000" font-family="'Helvetica'" font-size="2.4">numbers: 6px, 8px etc.</tspan><tspan x="0" y="22" fill="#000000" font-family="'Helvetica-Bold'" font-size="2.4">Remember to expand strokes </tspan><tspan x="0" y="25" fill="#000000" font-family="'Helvetica-Bold'" font-size="2.4">before saving as an SVG </tspan></text><rect x="-136.5" y="58" fill="none" width="35" height="32.5"/><text transform="matrix(1 0 0 1 -136.5 60.1572)"><tspan x="0" y="0" fill="#000000" font-family="'Helvetica-Bold'" font-size="3">Size</tspan><tspan x="0" y="5" fill="#000000" font-family="'Helvetica'" font-size="2.4">Cannot be wider or taller than </tspan><tspan x="0" y="8.5" fill="#000000" font-family="'Helvetica'" font-size="2.4">100px (artboard size)</tspan><tspan x="0" y="13.5" fill="#000000" font-family="'Helvetica'" font-size="2.4">Scale your icon to fill as much of </tspan><tspan x="0" y="16.5" fill="#000000" font-family="'Helvetica'" font-size="2.4">the artboard as possible</tspan></text><rect x="-94" y="58" fill="none" width="35" height="32.5"/><text transform="matrix(1 0 0 1 -94 60.1572)"><tspan x="0" y="0" fill="#000000" font-family="'Helvetica-Bold'" font-size="3">Ungroup</tspan><tspan x="0" y="5" fill="#000000" font-family="'Helvetica'" font-size="2.4">If your design has more than one </tspan><tspan x="0" y="8" fill="#000000" font-family="'Helvetica'" font-size="2.4">shape, make sure to ungroup</tspan></text><rect x="-50" y="58" fill="none" width="35" height="32.5"/><text transform="matrix(1 0 0 1 -50 60.1572)"><tspan x="0" y="0" fill="#000000" font-family="'Helvetica-Bold'" font-size="3">Save as</tspan><tspan x="0" y="5" fill="#000000" font-family="'Helvetica'" font-size="2.4">Save as .SVG and make sure </tspan><tspan x="0" y="8" fill="#000000" font-family="'Helvetica'" font-size="2.4">“Use Artboards” is checked</tspan></text><text transform="matrix(1.0074 0 0 1 -125.542 30.5933)" fill="#000000" font-family="'Helvetica'" font-size="2.5731">100px</text><text transform="matrix(1.0074 0 0 1 -41 39)" fill="#000000" font-family="'Helvetica-Bold'" font-size="5.1462">.SVG</text><rect x="-126.514" y="34.815" fill="#000000" width="10.261" height="10.185"/><rect x="-126.477" y="31.766" fill="#000000" width="0.522" height="2.337"/><rect x="-116.812" y="31.766" fill="#000000" width="0.523" height="2.337"/><rect x="-127" y="32.337" fill="#000000" width="11.233" height="0.572"/><g><rect x="-83.805" y="33.844" fill="#000000" width="10.305" height="10.156"/><rect x="-76.809" y="28.707" fill="#000000" width="3.308" height="3.261"/></g><rect x="-178.5" y="22.5" fill="#000000" stroke="#FFFFFF" stroke-miterlimit="10" width="30" height="30"/><rect x="-136.5" y="22.5" fill="#000000" stroke="#FFFFFF" stroke-miterlimit="10" width="30" height="30"/><rect x="-93.5" y="22.5" fill="#000000" stroke="#FFFFFF" stroke-miterlimit="10" width="30" height="30"/><rect x="-49.5" y="22.5" fill="#000000" stroke="#FFFFFF" stroke-miterlimit="10" width="30" height="30"/></g><g><g><g><path d="M2,98v-4.256h4.82c1.104,0,2-0.896,2-2V60.651h8.201v7.447c0,0.528,0.208,1.034,0.581,1.409l12.202,12.293     c0.383,0.386,0.897,0.591,1.42,0.591c0.256,0,0.515-0.049,0.761-0.15c0.75-0.31,1.238-1.039,1.238-1.85v-6.256l8.148,7.709     c0.379,0.358,0.873,0.547,1.375,0.547c0.267,0,0.536-0.054,0.791-0.163c0.733-0.315,1.209-1.038,1.209-1.837v-5.593l8.88,8.315     v8.63c0,1.104,0.896,2,2,2h9.996c0.804,0,1.508-0.478,1.823-1.178c0.014,0.009,0.027,0.019,0.041,0.028     c0.337,0.226,0.727,0.34,1.116,0.34c0.277,0,0.555-0.058,0.814-0.174c0.354,0.599,1.002,0.983,1.723,0.983h10.521     c0.721,0,1.369-0.385,1.723-0.982c0.259,0.114,0.535,0.172,0.812,0.172c0.39,0,0.779-0.114,1.115-0.34     c0.014-0.01,0.027-0.019,0.04-0.028c0.316,0.701,1.021,1.179,1.824,1.179h5.391V98H2z M71.139,62.555     c-0.082-0.207-0.199-0.401-0.348-0.574c0.11-0.076,0.213-0.162,0.307-0.259c0.112,0.116,0.237,0.218,0.373,0.304     c-0.002,0.002-0.045,0.055-0.045,0.055C71.306,62.228,71.21,62.388,71.139,62.555z M81.66,62.551     c-0.073-0.17-0.171-0.332-0.294-0.481c-0.013-0.015-0.025-0.03-0.038-0.046c0.134-0.084,0.26-0.186,0.371-0.302     c0.094,0.097,0.196,0.184,0.308,0.26C81.858,62.152,81.742,62.346,81.66,62.551z M90.652,61.873     c-0.273-0.272-0.618-0.458-0.991-0.538c0.127-0.218,0.214-0.464,0.251-0.728c0.033-0.24,0.021-0.479-0.028-0.705l4.906,1.389     h-2.727C91.533,61.291,91.026,61.502,90.652,61.873z M62.145,61.873c-0.374-0.372-0.88-0.582-1.41-0.582h-2.736l4.916-1.389     c-0.05,0.226-0.062,0.464-0.028,0.705c0.037,0.264,0.124,0.51,0.251,0.729C62.764,61.415,62.418,61.601,62.145,61.873z      M64.309,43.223l1.871-0.969c-0.001,0.162,0.018,0.326,0.057,0.489c0.042,0.17,0.104,0.331,0.186,0.48H64.309z M86.378,43.223     c0.081-0.148,0.144-0.31,0.186-0.48c0.039-0.162,0.058-0.325,0.057-0.485l1.862,0.965H86.378z"/><path fill="#000000" d="M15.021,62.651v5.447c0,1.056,0.417,2.068,1.161,2.817L28.384,83.21c0.766,0.771,1.793,1.182,2.84,1.182     c0.513,0,1.03-0.099,1.523-0.302c1.498-0.617,2.476-2.078,2.476-3.698v-1.61l4.774,4.516c0.758,0.717,1.747,1.095,2.75,1.095     c0.534,0,1.071-0.106,1.581-0.326c1.468-0.632,2.418-2.076,2.418-3.674v-0.979l4.88,4.569v7.763c0,2.209,1.791,4,4,4h9.996     c0.921,0,1.776-0.312,2.457-0.844c0.174,0.022,0.349,0.034,0.523,0.034c0.041,0,0.081-0.001,0.122-0.002     c0.678,0.514,1.519,0.812,2.415,0.812h10.521c0.897,0,1.738-0.299,2.416-0.812c0.039,0.001,0.079,0.002,0.118,0.002     c0.174,0,0.349-0.012,0.521-0.034c0.682,0.531,1.537,0.845,2.458,0.845h3.391V96H52.599H4v-0.256h2.82c2.209,0,4-1.791,4-4     V62.651H15.021 M81.152,37.341h-9.505c-0.217,0-0.44,0.055-0.638,0.158l-9.505,4.924c-0.031,0.017-0.057,0.04-0.088,0.059     c-0.036,0.021-0.069,0.042-0.103,0.068c-0.043,0.031-0.081,0.065-0.118,0.1c-0.02,0.018-0.041,0.033-0.061,0.052     c-0.014,0.013-0.022,0.028-0.034,0.042c-0.035,0.038-0.066,0.08-0.096,0.122c-0.023,0.034-0.048,0.067-0.069,0.104     c-0.029,0.048-0.053,0.098-0.076,0.148c-0.019,0.035-0.032,0.068-0.046,0.104c-0.018,0.052-0.035,0.107-0.049,0.163     c-0.008,0.038-0.016,0.076-0.023,0.114c-0.01,0.054-0.012,0.108-0.014,0.163c-0.004,0.027-0.01,0.055-0.01,0.083v4.93     c0,0.816,0.637,1.479,1.426,1.479c0.787,0,1.424-0.664,1.424-1.479h-0.002v-3.452h8.035L70.251,55.75l-16.403,4.636     c-0.031,0.009-0.062,0.025-0.093,0.038c-0.039,0.014-0.078,0.027-0.118,0.046c-0.049,0.024-0.096,0.052-0.146,0.081     c-0.031,0.02-0.062,0.039-0.094,0.062c-0.046,0.034-0.087,0.07-0.128,0.109c-0.018,0.017-0.038,0.029-0.054,0.046     c-0.012,0.012-0.018,0.024-0.029,0.036c-0.037,0.039-0.066,0.082-0.101,0.126c-0.025,0.034-0.049,0.067-0.068,0.103     c-0.029,0.047-0.054,0.096-0.075,0.146c-0.016,0.034-0.033,0.069-0.045,0.106c-0.021,0.054-0.037,0.111-0.051,0.169     c-0.008,0.034-0.019,0.068-0.024,0.104c-0.008,0.06-0.014,0.117-0.016,0.178c-0.002,0.025-0.008,0.051-0.008,0.077v4.929     c0,0.816,0.638,1.477,1.427,1.477c0.784,0,1.424-0.661,1.424-1.477v-3.451h5.085c-0.006,0.055-0.016,0.108-0.016,0.166v3.285     c0,0.816,0.637,1.477,1.428,1.477c0.785,0,1.422-0.661,1.422-1.477v-3.285c0-0.057-0.01-0.111-0.014-0.166h5.725l-3.657,28.453     h-9.996v-9.497l-12.88-12.061v10.205L31.223,69.49v10.901L19.021,68.099v-9.447H6.82v33.093H0V100h52.599h41.967v-8.256h-7.391     l-3.656-28.453h5.724c-0.006,0.055-0.018,0.107-0.018,0.164v3.287c0,0.815,0.642,1.477,1.43,1.477     c0.787,0,1.425-0.662,1.425-1.477v-3.287c0-0.056-0.008-0.109-0.016-0.164h5.084v3.451c0,0.815,0.64,1.477,1.429,1.477     c0.784,0,1.424-0.662,1.424-1.477l-0.002-4.929c0-0.026-0.006-0.052-0.008-0.079c-0.002-0.059-0.006-0.116-0.018-0.172     c-0.006-0.041-0.014-0.078-0.025-0.117c-0.014-0.052-0.026-0.104-0.046-0.154c-0.014-0.043-0.033-0.084-0.055-0.127     c-0.02-0.041-0.039-0.082-0.062-0.121c-0.027-0.045-0.057-0.088-0.09-0.131c-0.021-0.032-0.046-0.063-0.073-0.095     c-0.014-0.015-0.025-0.033-0.039-0.048c-0.021-0.023-0.049-0.043-0.075-0.063c-0.029-0.028-0.061-0.056-0.092-0.08     c-0.044-0.034-0.091-0.062-0.138-0.091c-0.031-0.02-0.065-0.039-0.101-0.056c-0.055-0.026-0.112-0.049-0.173-0.068     c-0.018-0.007-0.035-0.017-0.056-0.022l-16.4-4.64l-1.354-10.526h8.033v3.452c0,0.815,0.638,1.479,1.426,1.479     c0.787,0,1.427-0.664,1.427-1.479v-4.93c0-0.034-0.008-0.068-0.01-0.101c-0.004-0.043-0.008-0.087-0.015-0.13     c-0.008-0.057-0.021-0.111-0.035-0.166c-0.012-0.035-0.021-0.07-0.033-0.104c-0.018-0.056-0.043-0.11-0.068-0.162     c-0.015-0.033-0.032-0.064-0.048-0.095c-0.031-0.05-0.062-0.096-0.099-0.143c-0.021-0.03-0.043-0.06-0.066-0.088     c-0.016-0.017-0.027-0.038-0.045-0.055c-0.026-0.026-0.056-0.046-0.081-0.07c-0.027-0.023-0.051-0.046-0.079-0.066     c-0.053-0.041-0.109-0.077-0.167-0.109c-0.016-0.009-0.027-0.02-0.043-0.028l-9.503-4.928     C81.595,37.396,81.368,37.341,81.152,37.341L81.152,37.341z M68.18,42.269l3.802-1.973h8.834l3.805,1.973h-5.044     c-0.004,0-0.006-0.001-0.008-0.001H73.23c-0.002,0-0.004,0.001-0.008,0.001H68.18L68.18,42.269z M76.397,47.919l-1.943-2.521     l0.023-0.176h3.842l0.023,0.179L76.397,47.919L76.397,47.919z M73.677,51.445l0.432-3.342l1.073,1.393L73.677,51.445     L73.677,51.445z M79.118,51.445l-1.503-1.949l1.076-1.392L79.118,51.445L79.118,51.445z M75.922,55.406l-1.464-1.818l1.939-2.516     l1.945,2.517l-1.461,1.817H75.922L75.922,55.406z M73.17,55.406l0.037-0.295l0.238,0.295H73.17L73.17,55.406z M79.354,55.406     l0.235-0.295l0.037,0.295H79.354L79.354,55.406z M79.879,60.332l-1.585-1.971h1.715l0.252,1.971H79.879L79.879,60.332z      M72.536,60.332l0.254-1.971h1.715l-1.583,1.971H72.536L72.536,60.332z M83.139,60.332l-0.181-1.406l4.973,1.406H83.139     L83.139,60.332z M64.867,60.332l4.975-1.406l-0.184,1.406H64.867L64.867,60.332z M75.395,60.332l1.003-1.25l1.005,1.25H75.395     L75.395,60.332z M76.399,66.382l-3.421-3.042l0.04-0.049h6.763l0.041,0.05L76.399,66.382L76.399,66.382z M81.638,71.039     l-3.778-3.359l3.003-2.67L81.638,71.039L81.638,71.039z M71.157,71.039l0.777-6.029l3.004,2.672L71.157,71.039L71.157,71.039z      M76.397,76.506l-4.762-3.294l4.762-4.233l4.765,4.233L76.397,76.506L76.397,76.506z M69.877,81.013l0.785-6.104l4.022,2.781     L69.877,81.013L69.877,81.013z M82.92,81.016l-4.805-3.325l4.022-2.78L82.92,81.016L82.92,81.016z M76.397,86.523l-6.084-3.441     l6.084-4.207l6.084,4.207L76.397,86.523L76.397,86.523z M68.603,90.935l0.788-6.132l5.024,2.843L68.603,90.935L68.603,90.935z      M84.195,90.934l-5.811-3.288l5.023-2.841L84.195,90.934L84.195,90.934z M71.14,91.744l5.26-2.977l5.262,2.977H71.14     L71.14,91.744z"/></g><g><path d="M33.508,52.795c-0.865,0-1.809-0.069-2.806-0.205c-2.148-0.293-4.198-0.441-6.092-0.441c-0.63,0-1.232,0.016-1.809,0.047     c1.824-0.541,4.032-0.887,6.695-0.887c1.227,0,2.525,0.074,3.858,0.223c0.073,0.008,0.147,0.012,0.221,0.012     c0.047,0,0.095-0.001,0.143-0.004c2.535-0.182,4.503-0.559,6.03-1.041c-0.062,0.079-0.128,0.157-0.197,0.233     C38.316,52.101,36.283,52.795,33.508,52.795z"/><path fill="#000000" d="M43.001,45.772c-0.627,3.143-9.426,3.771-9.426,3.771c-1.455-0.162-2.813-0.235-4.079-0.235     c-13.512,0-16.663,8.407-16.663,8.407s2.675-3.566,11.777-3.566c1.707,0,3.638,0.125,5.822,0.423     c1.122,0.153,2.144,0.224,3.076,0.224C44.063,54.795,43.001,45.772,43.001,45.772L43.001,45.772z"/></g></g></g><text x="0" y="115" fill="#000000" font-size="5px" font-weight="bold" font-family="'Helvetica Neue', Helvetica, Arial-Unicode, Arial, Sans-serif">Created by Dimitry Sunseifer</text><text x="0" y="120" fill="#000000" font-size="5px" font-weight="bold" font-family="'Helvetica Neue', Helvetica, Arial-Unicode, Arial, Sans-serif">from the Noun Project</text></svg>