<svg id="Capa_1" enable-background="new 0 0 512 512" height="512" viewBox="0 0 512 512" width="512" xmlns="http://www.w3.org/2000/svg"><g><g><path d="m512 256c0 .565 0 1.141-.011 1.707-24.331 24.181-51.243 44.181-79.84 60.021-14.955 8.277-30.368 15.424-46.123 21.429-13.856 5.28-27.968 9.685-42.261 13.195-28.512 7.029-57.707 10.539-86.912 10.539-76.672 0-153.333-24.203-217.547-72.597l-26.453-114.603c33.686-102.048 129.814-175.691 243.147-175.691 14.773 0 29.248 1.248 43.339 3.659 23.541 26.699 56.235 43.584 91.616 47.339l21.387 2.272c7.051 5.44 13.803 11.253 20.245 17.387l61.717 91.616c5.771 14.656 10.229 29.973 13.216 45.813 2.944 15.509 4.48 31.53 4.48 47.914z" fill="#9bc6f9"/><g><g><path d="m512 256c0 .565 0 1.141-.011 1.707-24.331 24.181-51.243 44.181-79.84 60.021-54.368 30.112-114.837 45.163-175.296 45.163-43.381 0-86.773-7.755-127.904-23.253-31.552-11.883-61.771-28.331-89.643-49.355l-26.453-114.592c5.397-16.352 12.405-31.979 20.821-46.688 9.664 16.864 21.173 32.512 34.283 46.688 4.939 5.355 10.123 10.507 15.509 15.424 3.701 3.381 7.499 6.656 11.403 9.813 10.677 8.672 22.08 16.491 34.08 23.36 37.44 21.461 80.821 33.717 127.051 33.717 95.157 0 178.208-51.936 222.325-129.003 20.085 35.083 32.107 75.381 33.536 118.357.096 2.87.139 5.75.139 8.641z" fill="#83b2ff"/></g></g></g><g><path d="m412.341 53.269c-7.392 11.179-20.949 17.653-34.155 21.248-15.008 4.075-30.88 5.664-44.779 12.608-12.149 6.08-22.731 17.963-23.445 31.072-17.909 0-35.904-.299-53.888-.427-17.419-.128-34.827-.096-52.117.533-7.435-20.16 4.811-43.328 20.747-55.36 13.611-10.272 29.952-16.565 43.285-27.2 11.701-9.333 20.619-21.643 31.349-32.085 25.259 4.299 49.259 12.309 71.424 23.456 14.731 7.393 28.641 16.171 41.579 26.155z" fill="#fff"/><path d="m412.341 53.269c-7.392 11.179-20.949 17.653-34.155 21.248-15.008 4.075-30.88 5.664-44.779 12.608-12.149 6.08-22.731 17.963-23.445 31.072-17.909 0-35.904-.299-53.888-.427.363-8.277-.075-12.565-.075-12.565s5.077-23.083 32.331-40.853c.629-.405 1.312-.736 1.995-1.109 22.357-12.043 54.699-20.523 80.437-36.128 14.731 7.392 28.641 16.17 41.579 26.154z" fill="#dfebff"/><path d="m470.208 115.765c-11.403-.011-23.349-.021-25.579-.043-1.589-.021-3.179-.032-4.768-.043-2.197-.032-4.384-.053-6.581-.075-.373 0-.757-.011-1.131-.011-11.413-.107-22.837-.16-34.176.256-4.139-11.243 2.688-24.16 11.573-30.869 7.221-5.461 15.808-8.885 23.04-14.325 5.515 5.248 10.795 10.741 15.808 16.459 4.885 5.557 9.525 11.317 13.92 17.291.725.992 1.451 1.984 2.165 2.987 1.964 2.752 3.873 5.547 5.729 8.373z" fill="#fff"/><path d="m470.208 115.765c-10.613 0-23.072-.021-25.579-.043-1.589-.021-3.179-.032-4.768-.043-2.635-.021-5.237-.053-7.712-.075v-10.4c2.581-8.523 10.517-14.091 15.52-17.579.245-.171.491-.341.725-.512 4.885 5.557 9.525 11.317 13.92 17.291.725.992 1.451 1.984 2.165 2.987 1.964 2.753 3.873 5.548 5.729 8.374z" fill="#dfebff"/><g><g><path d="m439.371 434.635c-11.392 11.701-23.915 22.315-37.365 31.68-41.419 28.8-91.734 45.685-146.006 45.685s-104.587-16.885-146.005-45.685c-13.451-9.365-25.973-19.979-37.365-31.68l59.339-8.651h248.064z" fill="#464d7f"/><path d="m439.371 434.635c-11.392 11.701-23.915 22.315-37.365 31.68-41.419 28.8-91.734 45.685-146.006 45.685v-86.016h124.032z" fill="#3b407a"/></g><g><g><g><path d="m349.381 407.903h-186.762l13.408-148.885 1.045-11.659 7.669-85.088 5.184-41.483h132.15l5.173 41.483 7.669 85.088 1.046 11.659z" fill="#5b638c"/><path d="m349.381 407.903h-186.762l13.408-148.885 1.045-11.659h157.845l1.046 11.659z" fill="#464d7f"/><path d="m349.381 407.903h-142.773l7.648-160.544 4.053-85.088 2.742-41.483h101.024l5.173 41.483 7.669 85.088z" fill="#464d7f"/><path d="m349.381 407.903h-142.773l7.648-160.544h120.661z" fill="#3b407a"/><path d="m349.381 407.903h-93.376v-287.115h66.07l5.173 41.483 7.669 85.088z" fill="#3b407a"/><path d="m349.381 407.903h-93.376v-160.544h78.912z" fill="#2f316e"/><path d="m327.251 162.274h-142.508l5.175-41.482h132.158z" fill="#ff514d"/><path d="m327.251 162.274h-108.94l2.739-41.482h101.026z" fill="#f03e73"/><path d="m327.251 162.274h-71.251v-41.482h66.076z" fill="#dd316b"/><path d="m340.18 120.792c0 3.706-1.5 7.053-3.93 9.483-2.423 2.423-5.776 3.923-9.477 3.923h-141.553c-7.4 0-13.4-6-13.4-13.406 0-3.7 1.5-7.053 3.923-9.477 2.423-2.423 5.776-3.923 9.477-3.923h141.553c7.401 0 13.407 5.999 13.407 13.4z" fill="#5b638c"/><path d="m340.18 120.792c0 3.706-1.5 7.053-3.93 9.483-2.423 2.423-5.776 3.923-9.477 3.923h-103.987c-7.4 0-13.4-6-13.4-13.406 0-3.7 1.5-7.053 3.923-9.477 2.423-2.423 5.776-3.923 9.477-3.923h103.988c7.4 0 13.406 5.999 13.406 13.4z" fill="#464d7f"/><path d="m340.18 120.792c0 3.706-1.5 7.053-3.93 9.483-2.423 2.423-5.776 3.923-9.477 3.923h-70.773v-26.806h70.774c7.4 0 13.406 5.999 13.406 13.4z" fill="#3b407a"/></g><g><path d="m512 256c0 .565 0 1.141-.011 1.707v.043c-.373 56.203-18.848 108.107-49.909 150.155h-123.317l5.003-55.552 8.405-93.333 1.045-11.659 7.669-85.088 5.184-41.483h107.36c2.731 4.384 5.333 8.853 7.797 13.408 4.896 9.045 9.269 18.411 13.077 28.075 5.771 14.656 10.229 29.973 13.216 45.813 2.945 15.509 4.481 31.53 4.481 47.914z" fill="#5b638c"/><path d="m511.989 257.707v.043c-.373 56.203-18.848 108.107-49.909 150.155h-123.317l13.408-148.885 1.045-11.659h157.845z" fill="#464d7f"/><path d="m511.989 257.707v.043c-.373 56.203-18.848 108.107-49.909 150.155h-79.328l3.275-68.747 4.373-91.797 4.053-85.088 2.741-41.483h76.235c2.731 4.384 5.333 8.853 7.797 13.408 4.896 9.045 9.269 18.411 13.077 28.075 5.771 14.656 10.229 29.973 13.216 45.813l3.541 39.275z" fill="#464d7f"/><path d="m511.989 257.749c-.373 56.203-18.848 108.107-49.909 150.155h-79.328l7.648-160.544h120.661l.928 10.347z" fill="#3b407a"/><path d="m512 256c0 .565 0 1.141-.011 1.707v.043c-.373 56.203-18.848 108.107-49.909 150.155h-29.931v-287.116h41.28c2.731 4.384 5.333 8.853 7.797 13.408 4.896 9.045 9.269 18.411 13.077 28.075 11.425 29.024 17.697 60.64 17.697 93.728z" fill="#3b407a"/><path d="m512 256c0 .565 0 1.141-.011 1.707v.043c-.373 56.203-18.848 108.107-49.909 150.155h-29.931v-160.545h79.712c.096 2.869.139 5.749.139 8.64z" fill="#2f316e"/><path d="m494.304 162.272h-133.419l5.173-41.483h107.371c2.731 4.384 5.333 8.853 7.797 13.408 4.897 9.046 9.27 18.411 13.078 28.075z" fill="#ff514d"/><path d="m494.304 162.272h-99.85l2.741-41.483h76.235c2.731 4.384 5.333 8.853 7.797 13.408 4.896 9.046 9.269 18.411 13.077 28.075z" fill="#f03e73"/><path d="m494.304 162.272h-62.155v-41.483h41.28c2.731 4.384 5.333 8.853 7.797 13.408 4.897 9.046 9.27 18.411 13.078 28.075z" fill="#dd316b"/><path d="m481.227 134.197h-119.862c-7.403 0-13.397-5.995-13.397-13.408 0-3.701 1.493-7.051 3.925-9.472 2.421-2.421 5.771-3.925 9.472-3.925h103.115c3.115 4.363 6.101 8.832 8.949 13.397 2.731 4.384 5.334 8.854 7.798 13.408z" fill="#5b638c"/><path d="m481.227 134.197h-82.293c-7.403 0-13.397-5.995-13.397-13.408 0-3.701 1.493-7.051 3.915-9.472 2.432-2.421 5.781-3.925 9.483-3.925h65.547c3.115 4.363 6.101 8.832 8.949 13.397 2.729 4.384 5.332 8.854 7.796 13.408z" fill="#464d7f"/><path d="m481.227 134.197h-49.077v-26.805h32.331c6.111 8.555 11.711 17.504 16.746 26.805z" fill="#3b407a"/></g><g><path d="m64.004 191.11h64.943v216.794h-64.943z" fill="#c5e2f9"/><path d="m128.949 191.115v216.789h-79.029c-31.381-42.485-49.92-95.029-49.92-151.904 0-22.411 2.88-44.171 8.299-64.885z" fill="#dfebff"/><path d="m136.213 191.114v9.813h-7.264v206.976h-64.949v-216.789z" fill="#c5e2f9"/><path d="m136.213 175.691v25.237h-130.261c.715-3.296 1.493-6.571 2.347-9.813 1.355-5.205 2.88-10.347 4.555-15.424z" fill="#5b638c"/><path d="m64 175.69h72.213v25.237h-72.213z" fill="#464d7f"/><g><path d="m9.711 211.165h18.097v18.097h-18.097z" fill="#5989ff"/><path d="m27.809 211.165h18.097v18.097h-18.097z" fill="#b5d6ff"/><path d="m45.906 211.165h18.097v18.097h-18.097z" fill="#b5d6ff"/><path d="m64.003 211.165h18.097v18.097h-18.097z" fill="#83b2ff"/><path d="m82.1 211.165h18.097v18.097h-18.097z" fill="#5989ff"/><path d="m100.197 211.165h18.097v18.097h-18.097z" fill="#b5d6ff"/><g fill="#3b407a"><path d="m9.711 229.262h18.097v18.097h-18.097z"/><path d="m27.809 229.262h18.097v18.097h-18.097z"/><path d="m45.906 229.262h18.097v18.097h-18.097z"/></g><path d="m64.003 229.262h18.097v18.097h-18.097z" fill="#2f316e"/><path d="m82.1 229.262h18.097v18.097h-18.097z" fill="#2f316e"/><path d="m100.197 229.262h18.097v18.097h-18.097z" fill="#2f316e"/><path d="m9.711 247.36h18.097v18.097h-18.097z" fill="#5989ff"/><path d="m27.809 247.36h18.097v18.097h-18.097z" fill="#b5d6ff"/><path d="m45.906 247.36h18.097v18.097h-18.097z" fill="#5989ff"/><path d="m64.003 247.36h18.097v18.097h-18.097z" fill="#83b2ff"/><path d="m82.1 247.36h18.097v18.097h-18.097z" fill="#b5d6ff"/><path d="m100.197 247.36h18.097v18.097h-18.097z" fill="#fff"/><path d="m9.711 265.457h18.097v18.097h-18.097z" fill="#3b407a"/><path d="m27.809 265.457h18.097v18.097h-18.097z" fill="#3b407a"/><path d="m45.906 265.457h18.097v18.097h-18.097z" fill="#3b407a"/><path d="m64.003 265.457h18.097v18.097h-18.097z" fill="#2f316e"/><path d="m82.1 265.457h18.097v18.097h-18.097z" fill="#2f316e"/><path d="m100.197 265.457h18.097v18.097h-18.097z" fill="#2f316e"/></g></g></g><g><g><path d="m64.004 312.435h152.942v95.468h-152.942z" fill="#fff"/><path d="m140.475 312.435h76.471v95.468h-76.471z" fill="#dfebff"/><path d="m53.87 299.813h173.215v25.244h-173.215z" fill="#5989ff"/><path d="m140.475 299.813h86.61v25.244h-86.61z" fill="#3d77ea"/></g><g><path d="m84.278 337.758h22.479v22.479h-22.479z" fill="#3b407a"/><path d="m129.235 337.759h22.481v22.475h-22.481z" fill="#3b407a"/><path d="m174.193 337.758h22.479v22.479h-22.479z" fill="#2f316e"/></g><path d="m140.473 337.759h11.243v22.475h-11.243z" fill="#2f316e"/></g></g><path d="m256 385.429v22.475h-206.08c-5.323-7.211-10.283-14.709-14.848-22.475z" fill="#5989ff"/><path d="m140.48 385.428h115.52v22.475h-115.52z" fill="#3d77ea"/></g><path d="m472.245 421.269c0 7.381-4.544 13.365-10.133 13.365h-389.483c-8.16-8.373-15.755-17.301-22.709-26.731h412.192c2.795 0 5.323 1.493 7.157 3.915 1.835 2.411 2.976 5.761 2.976 9.451z" fill="#fff"/><path d="m462.08 407.904c-6.955 9.429-14.539 18.357-22.709 26.731h-183.371v-26.731z" fill="#dfebff"/></g></g></svg>