<?xml version="1.0" encoding="UTF-8" standalone="no" ?>
<!DOCTYPE svg PUBLIC "-//W3C//DTD SVG 1.1//EN" "http://www.w3.org/Graphics/SVG/1.1/DTD/svg11.dtd">
<svg xmlns="http://www.w3.org/2000/svg" xmlns:xlink="http://www.w3.org/1999/xlink" version="1.1" width="350" height="350" viewBox="0 0 350 350" xml:space="preserve">
<desc>Created with Fabric.js 1.7.22</desc>
<defs>
</defs>
<g id="icon" style="stroke: none; stroke-width: 1; stroke-dasharray: none; stroke-linecap: butt; stroke-linejoin: miter; stroke-miterlimit: 10; fill: none; fill-rule: nonzero; opacity: 1;" transform="translate(-1.9444444444444287 -1.9444444444444287) scale(3.89 3.89)" >
	<path d="M 48.647 69.718 c 13.692 0.652 24.265 4.924 24.265 10.098 C 72.912 85.44 60.415 90 45 90 s -27.912 -4.56 -27.912 -10.184 c 0 -5.173 10.573 -9.446 24.265 -10.098" style="stroke: none; stroke-width: 1; stroke-dasharray: none; stroke-linecap: butt; stroke-linejoin: miter; stroke-miterlimit: 10; fill: rgb(221,200,47); fill-rule: nonzero; opacity: 1;" transform=" matrix(1 0 0 1 0 0) " stroke-linecap="round" />
	<path d="M 45 79.665 l 21.792 -6.211 c -3.033 -1.381 -7.032 -2.466 -11.622 -3.122 L 45 79.665 z" style="stroke: none; stroke-width: 1; stroke-dasharray: none; stroke-linecap: butt; stroke-linejoin: miter; stroke-miterlimit: 10; fill: rgb(168,149,38); fill-rule: nonzero; opacity: 1;" transform=" matrix(1 0 0 1 0 0) " stroke-linecap="round" />
	<path d="M 45 0 C 30.802 0 19.291 11.51 19.291 25.709 c 0 20.07 21.265 33.961 25.709 53.956 C 48.304 53.11 48.304 26.555 45 0 z" style="stroke: none; stroke-width: 1; stroke-dasharray: none; stroke-linecap: butt; stroke-linejoin: miter; stroke-miterlimit: 10; fill: rgb(255,49,64); fill-rule: nonzero; opacity: 1;" transform=" matrix(1 0 0 1 0 0) " stroke-linecap="round" />
	<path d="M 45 8.35 c -9.665 0 -17.5 7.835 -17.5 17.5 s 7.835 17.5 17.5 17.5 C 49.657 31.683 49.657 20.017 45 8.35 z" style="stroke: none; stroke-width: 1; stroke-dasharray: none; stroke-linecap: butt; stroke-linejoin: miter; stroke-miterlimit: 10; fill: rgb(255,255,255); fill-rule: nonzero; opacity: 1;" transform=" matrix(1 0 0 1 0 0) " stroke-linecap="round" />
	<path d="M 45 0 c 14.198 0 25.709 11.51 25.709 25.709 c 0 20.07 -21.265 33.961 -25.709 53.956 V 0 z" style="stroke: none; stroke-width: 1; stroke-dasharray: none; stroke-linecap: butt; stroke-linejoin: miter; stroke-miterlimit: 10; fill: rgb(199,34,46); fill-rule: nonzero; opacity: 1;" transform=" matrix(1 0 0 1 0 0) " stroke-linecap="round" />
	<path d="M 45 8.35 c 9.665 0 17.5 7.835 17.5 17.5 s -7.835 17.5 -17.5 17.5 V 8.35 z" style="stroke: none; stroke-width: 1; stroke-dasharray: none; stroke-linecap: butt; stroke-linejoin: miter; stroke-miterlimit: 10; fill: rgb(240,240,240); fill-rule: nonzero; opacity: 1;" transform=" matrix(1 0 0 1 0 0) " stroke-linecap="round" />
	<path d="M 45 21.843 l -9.915 -2.096 c -0.365 -0.077 -0.74 0.034 -1.003 0.298 l -0.76 0.76 c -0.257 0.257 -0.37 0.623 -0.302 0.98 c 0.067 0.357 0.306 0.657 0.639 0.802 l 7.512 3.285 c 0.17 0.074 0.287 0.221 0.321 0.403 c 0.034 0.182 -0.021 0.362 -0.152 0.493 l -2.034 2.034 c -0.169 0.169 -0.416 0.231 -0.644 0.161 l -1.964 -0.598 c -0.312 -0.095 -0.65 -0.011 -0.881 0.22 l -0.784 0.784 c -0.203 0.203 -0.295 0.493 -0.245 0.776 c 0.05 0.283 0.234 0.524 0.494 0.646 l 3.306 1.55 l 1.521 3.244 c 0.122 0.26 0.364 0.445 0.646 0.494 c 0.283 0.05 0.573 -0.042 0.776 -0.245 l 0.784 -0.784 c 0.231 -0.231 0.315 -0.568 0.22 -0.88 l -0.599 -1.964 c -0.07 -0.229 -0.008 -0.475 0.161 -0.644 l 2.018 -2.018 c 0.131 -0.131 0.312 -0.187 0.492 -0.152 c 0.177 0.033 0.317 0.147 0.394 0.308 C 46.647 27.116 46.603 24.496 45 21.843 z" style="stroke: none; stroke-width: 1; stroke-dasharray: none; stroke-linecap: butt; stroke-linejoin: miter; stroke-miterlimit: 10; fill: rgb(255,49,64); fill-rule: nonzero; opacity: 1;" transform=" matrix(1 0 0 1 0 0) " stroke-linecap="round" />
	<path d="M 54.425 19.232 c 0.382 -0.382 0.591 -0.911 0.574 -1.451 c -0.018 -0.548 -0.255 -1.049 -0.668 -1.412 c -0.774 -0.68 -1.968 -0.623 -2.72 0.128 l -4.984 4.984 c -0.365 0.365 -0.885 0.52 -1.392 0.412 L 45 21.843 V 29.7 c 0.002 0.005 0.008 0.008 0.01 0.013 l 3.285 7.512 c 0.146 0.333 0.445 0.571 0.802 0.639 c 0.068 0.013 0.136 0.019 0.204 0.019 c 0.288 0 0.568 -0.113 0.776 -0.321 l 0.761 -0.76 c 0.264 -0.264 0.375 -0.638 0.298 -1.003 l -2.145 -10.15 c -0.107 -0.506 0.047 -1.026 0.413 -1.392 L 54.425 19.232 z" style="stroke: none; stroke-width: 1; stroke-dasharray: none; stroke-linecap: butt; stroke-linejoin: miter; stroke-miterlimit: 10; fill: rgb(199,34,46); fill-rule: nonzero; opacity: 1;" transform=" matrix(1 0 0 1 0 0) " stroke-linecap="round" />
</g>
</svg>